<?xml version="1.0" encoding="UTF-8"?>
<svg width="1749px" height="1265px" viewBox="0 0 1749 1265" version="1.1" xmlns="http://www.w3.org/2000/svg" xmlns:xlink="http://www.w3.org/1999/xlink">
    <title>Artboard</title>
    <g id="Artboard" stroke="none" stroke-width="1" fill="none" fill-rule="evenodd">
        <g id="4-3" transform="translate(-38.870000, -104.000000)" fill-rule="nonzero">
            <rect id="Rectangle" fill="#FFFFFF" x="745.87" y="100" width="1079" height="1273"></rect>
            <rect id="Rectangle" fill="#FFB203" x="0" y="100.43" width="1826" height="1274"></rect>
            <path d="M1683.65,0 C1683.65,0 1273.28,305.81 1122.32,413.5 C971.36,521.19 812.5,623.44 844.87,720.43 C868.8,792.13 1138.78,734.99 1290.5,718.09 C1442.22,701.19 1528.44,665.03 1647.5,815.24 L2300.87,1639.1 L2807.87,568.53 L1683.65,0 Z" id="Path" fill="#F2F0E8"></path>
            <path d="M848.87,728.43 C893.57,758 962.25,751.8 1012.81,749.01 C1142.67,741.84 1270.28,716.74 1398.81,699.3 C1444.9,693.05 1493.08,691.46 1538.13,704.81 C1579.68,717.12 1603.76,751.27 1617.73,791.13 C1634.34,838.53 1649.06,886.52 1665.3,934.06 L1699.74,1034.83 L1392.21,1862.14 L848.87,728.43 Z" id="Path" fill="#05283C"></path>
            <path d="M1352.24,2021.39 C1352.24,2021.39 1366.75,1999.16 1500.92,1428.26 C1599.43,1009.13 1649.04,885.34 1606.62,763.8 L2300.87,1639.1 L1971.53,2334.57 L1352.24,2021.39 Z" id="Path" fill="#CFD9EA"></path>
        </g>
    </g>
</svg>