<svg height="511pt" viewBox="-56 1 511 511.999" width="511pt" xmlns="http://www.w3.org/2000/svg"><path d="m352.898438 64.265625h-17.132813v-17.132813c0-25.988281-21.144531-47.132812-47.132813-47.132812h-176.734374c-3.976563 0-7.792969 1.582031-10.605469 4.394531l-96.398438 96.398438c-2.8125 2.8125-4.394531 6.628906-4.394531 10.605469v289.203124c0 25.988282 21.144531 47.132813 47.132812 47.132813h17.132813v17.132813c0 12.597656 4.90625 24.433593 13.804687 33.316406 8.894532 8.910156 20.734376 13.816406 33.332032 13.816406h241c25.988281 0 47.132812-21.144531 47.132812-47.132812v-353.46875c0-25.988282-21.144531-47.132813-47.136718-47.132813zm-239.933594-29.121094v60.1875c0 9.449219-7.683594 17.132813-17.132813 17.132813h-60.183593zm-82.464844 365.457031v-258.132812h65.332031c25.988281 0 47.132813-21.144531 47.132813-47.132812v-65.335938h145.667968c9.445313 0 17.132813 7.6875 17.132813 17.132812v353.46875c0 9.445313-7.6875 17.132813-17.132813 17.132813h-241c-9.449218 0-17.132812-7.6875-17.132812-17.132813zm339.535156 64.265626c0 9.445312-7.6875 17.132812-17.132812 17.132812h-241c-4.578125 0-8.875-1.78125-12.121094-5.027344-3.234375-3.230468-5.015625-7.53125-5.015625-12.105468v-17.132813h193.867187c25.992188 0 47.132813-21.144531 47.132813-47.132813v-306.335937h17.136719c9.445312 0 17.132812 7.6875 17.132812 17.132813zm0 0"/><path d="m95.832031 222.800781h144.601563c8.285156 0 15-6.714843 15-15 0-8.285156-6.714844-15-15-15h-144.601563c-8.28125 0-15 6.714844-15 15 0 8.285157 6.71875 15 15 15zm0 0"/><path d="m95.832031 287.066406h144.601563c8.285156 0 15-6.714844 15-15s-6.714844-15-15-15h-144.601563c-8.28125 0-15 6.714844-15 15s6.71875 15 15 15zm0 0"/><path d="m95.832031 351.332031h80.335938c8.28125 0 15-6.714843 15-15 0-8.28125-6.71875-15-15-15h-80.335938c-8.28125 0-15 6.71875-15 15 0 8.285157 6.71875 15 15 15zm0 0"/></svg>