<svg id="Capa_1" enable-background="new 0 0 512 512" height="512" viewBox="0 0 512 512" width="512" xmlns="http://www.w3.org/2000/svg"><g><path d="m497 60h-297.728l-19.262-50.359c-2.221-5.807-7.793-9.641-14.01-9.641h-151c-8.284 0-15 6.716-15 15v482c0 8.284 6.716 15 15 15h482c8.284 0 15-6.716 15-15v-422c0-8.284-6.716-15-15-15zm-467-30h125.678l19.263 50.359c2.221 5.807 7.793 9.641 14.01 9.641h49.479c-6.19 17.461-22.873 30-42.43 30h-166zm452 452h-452v-332h166c36.219 0 66.523-25.809 73.493-60h212.507z"/><path d="m287 211h15v30h-195c-8.284 0-15 6.716-15 15v120c0 8.284 6.716 15 15 15h195v30h-15c-8.284 0-15 6.716-15 15s6.716 15 15 15h60c8.284 0 15-6.716 15-15s-6.716-15-15-15h-15v-30h75c8.284 0 15-6.716 15-15v-120c0-8.284-6.716-15-15-15h-75v-30h15c8.284 0 15-6.716 15-15s-6.716-15-15-15h-60c-8.284 0-15 6.716-15 15s6.716 15 15 15zm-165 150v-90h180v90zm270-90v90h-60v-90z"/><path d="m257 301h-90c-8.284 0-15 6.716-15 15s6.716 15 15 15h90c8.284 0 15-6.716 15-15s-6.716-15-15-15z"/></g></svg>